<svg width="21" height="20" viewBox="0 0 21 20" fill="none" xmlns="http://www.w3.org/2000/svg">
<g id="add-circle_svgrepo.com">
<path id="Vector" d="M11.125 7.5C11.125 7.15483 10.8452 6.875 10.5 6.875C10.1548 6.875 9.875 7.15483 9.875 7.5V9.375H8C7.65483 9.375 7.375 9.65483 7.375 10C7.375 10.3452 7.65483 10.625 8 10.625H9.875V12.5C9.875 12.8452 10.1548 13.125 10.5 13.125C10.8452 13.125 11.125 12.8452 11.125 12.5V10.625H13C13.3452 10.625 13.625 10.3452 13.625 10C13.625 9.65483 13.3452 9.375 13 9.375H11.125V7.5Z" fill="#ED2724"/>
<path id="Vector_2" fill-rule="evenodd" clip-rule="evenodd" d="M10.5001 1.04199C5.55253 1.04199 1.54175 5.05278 1.54175 10.0003C1.54175 14.9479 5.55253 18.9587 10.5001 18.9587C15.4477 18.9587 19.4584 14.9479 19.4584 10.0003C19.4584 5.05278 15.4477 1.04199 10.5001 1.04199ZM2.79175 10.0003C2.79175 5.74313 6.24289 2.29199 10.5001 2.29199C14.7572 2.29199 18.2084 5.74313 18.2084 10.0003C18.2084 14.2575 14.7572 17.7087 10.5001 17.7087C6.24289 17.7087 2.79175 14.2575 2.79175 10.0003Z" fill="#ED2724"/>
</g>
</svg>
