<svg width="36" height="36" viewBox="0 0 36 36" fill="none" xmlns="http://www.w3.org/2000/svg">
<path d="M26.2623 15.2748C25.8973 11.5716 22.7312 8.66602 18.8335 8.66602C15.8174 8.66602 13.2348 10.4093 12.0447 12.9106C11.6863 12.7994 11.3129 12.724 10.9171 12.724C8.84608 12.724 7.16685 14.3601 7.16685 16.3761C7.16685 16.777 7.24936 17.1561 7.37186 17.5156C5.76097 18.4303 4.66675 20.1095 4.66675 22.0557C4.66675 24.9693 7.0919 27.331 10.0838 27.331V27.3327H25.0839V27.331C28.5374 27.331 31.3334 24.6065 31.3334 21.2441C31.3334 18.2769 29.1499 15.8121 26.2623 15.2748ZM21.1503 19.9472H19.6668V23.2033C19.6668 23.652 19.2951 24.0165 18.8335 24.0165H17.1667C16.7067 24.0165 16.3333 23.652 16.3333 23.2033V19.9472H14.8491C13.944 19.9472 13.5748 19.3588 14.0265 18.6413L17.1775 15.6166C17.7951 15.016 18.1859 14.9957 18.8226 15.6166L21.9737 18.6413C22.427 19.3596 22.0553 19.9472 21.1503 19.9472Z" fill="#E12B41"/>
</svg>
