<svg width="20" height="20" viewBox="0 0 20 20" fill="none" xmlns="http://www.w3.org/2000/svg">
<path d="M5.83333 10.0007C5.83333 10.9212 5.08714 11.6673 4.16667 11.6673C3.24619 11.6673 2.5 10.9212 2.5 10.0007C2.5 9.08015 3.24619 8.33398 4.16667 8.33398C5.08714 8.33398 5.83333 9.08015 5.83333 10.0007Z" fill="#1C274C"/>
<path d="M11.6668 10.0007C11.6668 10.9212 10.9207 11.6673 10.0002 11.6673C9.07966 11.6673 8.3335 10.9212 8.3335 10.0007C8.3335 9.08015 9.07966 8.33398 10.0002 8.33398C10.9207 8.33398 11.6668 9.08015 11.6668 10.0007Z" fill="#1C274C"/>
<path d="M17.4998 10.0007C17.4998 10.9212 16.7537 11.6673 15.8332 11.6673C14.9127 11.6673 14.1665 10.9212 14.1665 10.0007C14.1665 9.08015 14.9127 8.33398 15.8332 8.33398C16.7537 8.33398 17.4998 9.08015 17.4998 10.0007Z" fill="#1C274C"/>
</svg>
