<svg width="20" height="20" viewBox="0 0 20 20" fill="none" xmlns="http://www.w3.org/2000/svg">
<path d="M7.62747 4.50828C8.68302 2.61474 9.21079 1.66797 9.99984 1.66797C10.7889 1.66797 11.3167 2.61474 12.3722 4.50828L12.6453 4.99816C12.9452 5.53625 13.0952 5.80529 13.3291 5.98281C13.5629 6.16033 13.8541 6.22622 14.4366 6.35801L14.9669 6.47799C17.0166 6.94176 18.0415 7.17365 18.2853 7.95774C18.5292 8.74184 17.8305 9.55886 16.4331 11.1929L16.0716 11.6157C15.6745 12.08 15.4759 12.3122 15.3866 12.5994C15.2973 12.8866 15.3273 13.1964 15.3874 13.8159L15.442 14.38C15.6533 16.5601 15.7589 17.6502 15.1205 18.1348C14.4822 18.6194 13.5226 18.1776 11.6034 17.2939L11.1069 17.0653C10.5616 16.8142 10.2889 16.6887 9.99984 16.6887C9.71079 16.6887 9.43811 16.8142 8.89274 17.0653L8.39623 17.2939C6.47707 18.1776 5.51748 18.6194 4.87913 18.1348C4.24077 17.6502 4.3464 16.5601 4.55767 14.38L4.61232 13.8159C4.67236 13.1964 4.70238 12.8866 4.61306 12.5994C4.52374 12.3122 4.32519 12.08 3.9281 11.6157L3.56659 11.1929C2.16921 9.55886 1.47052 8.74184 1.71435 7.95774C1.95819 7.17365 2.98305 6.94177 5.03278 6.47799L5.56308 6.35801C6.14555 6.22622 6.43678 6.16033 6.67062 5.98281C6.90447 5.80529 7.05444 5.53625 7.35439 4.99816L7.62747 4.50828Z" stroke="#FEFEFE"/>
</svg>
