<svg width="20" height="20" viewBox="0 0 20 20" fill="none" xmlns="http://www.w3.org/2000/svg">
<path d="M5 6.66797C5 4.31095 5 3.13243 5.73223 2.4002C6.46447 1.66797 7.64298 1.66797 10 1.66797C12.357 1.66797 13.5355 1.66797 14.2678 2.4002C15 3.13243 15 4.31095 15 6.66797V13.3346C15 15.6917 15 16.8702 14.2678 17.6024C13.5355 18.3346 12.357 18.3346 10 18.3346C7.64298 18.3346 6.46447 18.3346 5.73223 17.6024C5 16.8702 5 15.6917 5 13.3346V6.66797Z" stroke="#FEFEFE"/>
<path d="M15 16.25C16.1668 16.25 16.7502 16.25 17.1958 16.0229C17.5878 15.8232 17.9065 15.5045 18.1063 15.1125C18.3333 14.6668 18.3333 14.0834 18.3333 12.9167V7.08333C18.3333 5.91656 18.3333 5.33317 18.1063 4.88752C17.9065 4.49552 17.5878 4.17681 17.1958 3.97707C16.7502 3.75 16.1668 3.75 15 3.75" stroke="#FEFEFE"/>
<path d="M4.99984 16.25C3.83306 16.25 3.24967 16.25 2.80402 16.0229C2.41202 15.8232 2.09331 15.5045 1.89357 15.1125C1.6665 14.6668 1.6665 14.0834 1.6665 12.9167V7.08333C1.6665 5.91656 1.6665 5.33317 1.89357 4.88752C2.09331 4.49552 2.41202 4.17681 2.80402 3.97707C3.24967 3.75 3.83306 3.75 4.99984 3.75" stroke="#FEFEFE"/>
</svg>
