<svg width="20" height="20" viewBox="0 0 20 20" fill="none" xmlns="http://www.w3.org/2000/svg">
<path d="M10 17.5L10 10M10 10L12.5 12.7778M10 10L7.5 12.7778" stroke="#FEFEFE" stroke-linecap="round" stroke-linejoin="round"/>
<path d="M17.0832 5.83203V10.832C17.0832 13.9747 17.0832 15.5461 16.1069 16.5224C15.1306 17.4987 13.5592 17.4987 10.4165 17.4987H9.58317C6.44047 17.4987 4.86913 17.4987 3.89281 16.5224C2.9165 15.5461 2.9165 13.9747 2.9165 10.832V5.83203" stroke="#FEFEFE" stroke-linecap="round"/>
<path d="M1.6665 4.16667C1.6665 3.38099 1.6665 2.98816 1.91058 2.74408C2.15466 2.5 2.5475 2.5 3.33317 2.5H16.6665C17.4522 2.5 17.845 2.5 18.0891 2.74408C18.3332 2.98816 18.3332 3.38099 18.3332 4.16667C18.3332 4.95234 18.3332 5.34518 18.0891 5.58926C17.845 5.83333 17.4522 5.83333 16.6665 5.83333H3.33317C2.5475 5.83333 2.15466 5.83333 1.91058 5.58926C1.6665 5.34518 1.6665 4.95234 1.6665 4.16667Z" stroke="#FEFEFE"/>
</svg>
