<svg width="20" height="20" viewBox="0 0 20 20" fill="none" xmlns="http://www.w3.org/2000/svg">
<path d="M2.5 8.33464C2.5 5.19194 2.5 3.62059 3.47631 2.64428C4.45262 1.66797 6.02397 1.66797 9.16667 1.66797H10.8333C13.976 1.66797 15.5474 1.66797 16.5237 2.64428C17.5 3.62059 17.5 5.19194 17.5 8.33464V11.668C17.5 14.8107 17.5 16.382 16.5237 17.3583C15.5474 18.3346 13.976 18.3346 10.8333 18.3346H9.16667C6.02397 18.3346 4.45262 18.3346 3.47631 17.3583C2.5 16.382 2.5 14.8107 2.5 11.668V8.33464Z" stroke="#FEFEFE"/>
<path d="M6.6665 8.33203H13.3332" stroke="#FEFEFE" stroke-linecap="round"/>
<path d="M6.6665 11.668H10.8332" stroke="#FEFEFE" stroke-linecap="round"/>
</svg>
